<svg id="Ebene_1" data-name="Ebene 1" xmlns="http://www.w3.org/2000/svg" viewBox="0 0 309.65 45.41"><defs><style>.cls-1{fill:none;stroke:#000;stroke-width:0.25px;}</style></defs><polygon points="36.95 0 12.23 29.09 12.23 34.75 36.95 5.67 36.95 0"/><polygon points="0 33.82 0 39.48 24.72 10.39 24.72 4.73 0 33.82"/><path d="M104.6,21.46l-.19-.05c-3.36-.82-4.89-1.2-4.89-3.18,0-1.82,1.47-3,3.76-3a3.31,3.31,0,0,1,3.69,3.4l0,.19h5.38v-.2A6.86,6.86,0,0,0,111,14.11c-2.1-2.59-5.58-3-7.46-3-7.18,0-9.74,3.95-9.74,7.64,0,3.18,1.52,5.52,9,7.36,3,.7,4.42,1,4.42,3s-1.72,3.1-4.37,3.1c-1.78,0-3-.56-3.64-1.68A5.08,5.08,0,0,1,98.68,28v-.26H93v.21c0,2.27.11,8.3,9.55,8.3,6.24,0,10.45-3.14,10.49-7.82v-.14c0-4.85-4.69-6-8.43-6.82" transform="translate(-1.26 -1.03)"/><polygon points="81.98 27.2 77.99 10.59 71.95 10.59 67.8 27.23 64.34 10.59 58.57 10.59 64.39 34.72 70.31 34.72 74.75 17.57 78.78 34.72 84.89 34.72 90.98 10.59 85.61 10.59 81.98 27.2"/><path d="M50.8,29.9c-1.46,1.46-3.38,1.51-5.38,1.51H44.08V16h1.46a11.65,11.65,0,0,1,3.15.22c3.65,1,4.19,4.91,4.19,7.14,0,1.36-.2,4.7-2.08,6.58m3.82-16.1c-2-1.45-4.77-2.18-8.33-2.18H38.21V35.75h7.62a22.49,22.49,0,0,0,4.32-.26,9.78,9.78,0,0,0,6-3.62,13.51,13.51,0,0,0,2.57-8.55c0-2.41-.54-6.87-4.13-9.52" transform="translate(-1.26 -1.03)"/><line class="cls-1" x1="130.25" y1="0.48" x2="130.25" y2="45.41"/><path d="M310.91,21.76h-3.69v1h1.23l-1.41,5-2.11-6.07h-1.48l-2.11,6.07-1.41-5h1.22v-1h-3.68v1h1l2.13,6.77H302l2.25-6.32,2.22,6.32h1.4L310,22.81h1Zm-15.2,3.9c0,1.9-.83,3-2.1,3s-2.1-1-2.1-3,.79-3,2.1-3,2.1,1,2.1,3m1.48,0c0-2.62-1.52-4.07-3.58-4.07S290,23.09,290,25.66s1.49,4.08,3.57,4.08,3.58-1.41,3.58-4.08m-7.69,2.87h-1.14v-4c0-2-.89-2.91-2.54-2.91a2.64,2.64,0,0,0-2.35,1.34V21.76h-2.56v1h1.15v5.72h-1.15v1h3.75v-1h-1.19V25.25c0-1.5.86-2.47,1.93-2.47s1.55.55,1.55,1.72v5.08h2.55ZM277,21.76h-3.68v1h1.22l-1.41,5L271,21.76h-1.49l-2.1,6.07-1.41-5h1.22v-1h-3.69v1h1l2.13,6.77H268l2.24-6.32,2.23,6.32h1.39L276,22.81h1ZM258.05,25c.14-1.6.86-2.4,2-2.4s1.77.86,1.77,2.4Zm5.2.58c0-2.52-1.14-4-3.16-4s-3.51,1.5-3.51,4.07c0,2.78,1.47,4.08,3.51,4.08s3.05-1,3.05-2.48h-1.39a1.49,1.49,0,0,1-1.68,1.4c-1.14,0-2-.79-2-2.73h5.22ZM256,28.53H254.9v-4c0-2-.9-2.91-2.54-2.91A2.67,2.67,0,0,0,250,22.93V21.76h-2.55v1h1.14v5.72h-1.14v1h3.75v-1H250V25.25c0-1.5.87-2.47,1.93-2.47s1.56.55,1.56,1.72v5.08H256ZM241,26.6A1.91,1.91,0,0,1,239,28.66a1.18,1.18,0,0,1-1.32-1.26c0-.95.58-1.39,1.57-1.39H241Zm2.56,1.93h-1.15V24.27c0-2-1.19-2.68-2.9-2.68a7,7,0,0,0-2.69.64V24h1.12V23a4.27,4.27,0,0,1,1.57-.35c.93,0,1.49.43,1.49,1.62v.75h-1.82c-1.77,0-2.91.78-2.91,2.4a2.21,2.21,0,0,0,2.49,2.29,3,3,0,0,0,2.4-1.19v1h2.4Zm-11.29-6.87a2.07,2.07,0,0,0-.54-.07,2.33,2.33,0,0,0-2.22,1.63V21.76H227v1h1.14v5.74H227v1h4.06v-1h-1.51V25.77c0-1.68.82-2.68,2.1-2.68a2.58,2.58,0,0,1,.6.06Zm-7.42,4c0,1.9-.83,3-2.1,3s-2.1-1-2.1-3,.78-3,2.1-3,2.1,1,2.1,3m1.47,0c0-2.62-1.51-4.07-3.57-4.07s-3.57,1.5-3.57,4.07,1.48,4.08,3.57,4.08,3.57-1.41,3.57-4.08m-7.16-7.43a5.81,5.81,0,0,0-.94-.09c-1.55,0-2.71.84-2.71,2.89v.73h-1.35v1h1.35v5.72h-1.19v1h4.06v-1h-1.46V22.81h1.81v-1h-1.81V21c0-1.06.47-1.7,1.36-1.7a5.14,5.14,0,0,1,.88.11Zm-9.08,9.1c0-1.61-1.33-2-2.46-2.36-.89-.28-1.76-.48-1.76-1.19s.5-1.1,1.38-1.1a5.58,5.58,0,0,1,1.37.19v1h1.12V22.07a7.08,7.08,0,0,0-2.58-.48c-1.49,0-2.76.75-2.76,2.27s1.19,1.88,2.26,2.23,1.94.47,1.94,1.31S208,28.64,207,28.64a5.81,5.81,0,0,1-1.52-.25V27.28h-1.13v2a7.82,7.82,0,0,0,2.74.5c1.62,0,2.92-.78,2.92-2.41m-6.24-5.67a2.05,2.05,0,0,0-.53-.07,2.33,2.33,0,0,0-2.23,1.63V21.76h-2.49v1h1.14v5.74h-1.14v1h4.06v-1h-1.51V25.77c0-1.68.82-2.68,2.1-2.68a2.58,2.58,0,0,1,.6.06Zm-7.42,4c0,1.9-.83,3-2.1,3s-2.1-1-2.1-3,.78-3,2.1-3,2.1,1,2.1,3m1.48,0c0-2.62-1.52-4.07-3.58-4.07s-3.57,1.5-3.57,4.07,1.49,4.08,3.57,4.08,3.58-1.41,3.58-4.08m-7.69,2.79a5.87,5.87,0,0,1-1,.11c-.69,0-1.05-.4-1.05-1.39V22.81h2v-1h-2V19.33l-1.41.22v2.21h-1.51v1h1.51v4.36c0,2,1.05,2.57,2.28,2.57a7.45,7.45,0,0,0,1.21-.14Zm-5.31-1.12c0-1.61-1.33-2-2.46-2.36-.9-.28-1.76-.48-1.76-1.19s.5-1.1,1.38-1.1a5.56,5.56,0,0,1,1.36.19v1h1.13V22.07a7.08,7.08,0,0,0-2.58-.48c-1.49,0-2.76.75-2.76,2.27s1.19,1.88,2.25,2.23,1.95.47,1.95,1.31-.55,1.24-1.52,1.24a5.73,5.73,0,0,1-1.52-.25V27.28h-1.13v2a7.82,7.82,0,0,0,2.74.5c1.62,0,2.92-.78,2.92-2.41m-12-2.31c.14-1.6.86-2.4,2-2.4s1.77.86,1.77,2.4Zm5.21.58c0-2.52-1.15-4-3.17-4s-3.51,1.5-3.51,4.07c0,2.78,1.47,4.08,3.51,4.08s3.06-1,3.06-2.48h-1.4a1.49,1.49,0,0,1-1.67,1.4c-1.15,0-2-.79-2-2.73h5.22Zm-6.9-3.84H169l-2.1,6.13-1.85-5.08h1.22v-1h-3.75v1h1l2.7,6.77h1.35l2.57-6.77h1ZM163,28.53H161.8v-4c0-2-.89-2.91-2.54-2.91a2.64,2.64,0,0,0-2.35,1.34V21.76h-2.56v1h1.15v5.72h-1.15v1h3.75v-1h-1.19V25.25c0-1.5.86-2.47,1.93-2.47s1.55.55,1.55,1.72v5.08H163Zm-8.83,0h-1.29V19.34h1.29V18.29h-4v1.05h1.3v9.19h-1.3v1h4Z" transform="translate(-1.26 -1.03)"/></svg>