<?xml version="1.0" encoding="UTF-8"?>
<svg width="162px" height="23px" viewBox="0 0 162 23" version="1.1" xmlns="http://www.w3.org/2000/svg" xmlns:xlink="http://www.w3.org/1999/xlink">
    <!-- Generator: Sketch 51.3 (57544) - http://www.bohemiancoding.com/sketch -->
    <title>logo-ishares</title>
    <desc>Created with Sketch.</desc>
    <defs></defs>
    <g id="logo-ishares" stroke="none" stroke-width="1" fill="none" fill-rule="evenodd">
        <g fill="#000000" fill-rule="nonzero" id="Shape">
            <path d="M0,4.2895 L0,0.552 L4.64306087,0.552 L4.64306087,4.2895 L0,4.2895 Z M0,21.252 L0,5.934 L4.64306087,5.934 L4.64306087,21.24625 L0,21.252 Z M82.6030957,14.809125 L72.1787478,14.809125 C72.3703304,16.436375 73.5564522,17.684125 75.8413565,17.684125 C77.2387293,17.7219709 78.5873142,17.1585695 79.5574957,16.131625 L82.3354435,19.029625 C80.9098435,20.668375 78.6502957,21.666 75.8554435,21.666 C70.5333913,21.666 67.4032696,18.535125 67.4032696,13.4895 C67.4032696,8.829125 70.423513,5.4395 75.2074435,5.4395 C79.9913739,5.4395 82.7721391,8.415125 82.7721391,12.85125 C82.7869532,13.5082472 82.7302583,14.1648925 82.6030957,14.809125 Z M78.1488,11.876625 C78.0445565,10.28675 77.0077565,9.154 75.2243478,9.154 C73.4409391,9.154 72.4069565,10.27525 72.1872,11.876625 L78.1488,11.876625 Z M90.5058783,21.651625 C88.2125217,21.651625 85.4092174,21.03925 83.3384348,19.02675 L85.9867826,16.123 C87.2086958,17.2937464 88.8185425,17.950852 90.4946087,17.963 C92.1117913,17.963 92.8161391,17.534625 92.8161391,16.879125 C92.8161391,16.38175 92.4639652,16.1 91.5793043,15.82975 C90.8073391,15.594 89.5902261,15.387 88.5646957,15.079375 C86.3361391,14.41525 84.1216696,13.469375 84.1216696,10.258 C84.1160348,7.28525 86.493913,5.4625 90.4636174,5.4625 C92.6611826,5.4625 95.140487,5.919625 97.2253565,7.805625 L94.5488348,10.6375 C93.3796174,9.4875 91.7483478,9.0735 90.4269913,9.0735 C89.2324174,9.0735 88.5703304,9.501875 88.5703304,10.097 C88.5703304,10.5915 88.9225043,10.881875 89.8240696,11.180875 C90.6073043,11.43675 91.9033043,11.686875 92.9232,11.983 C95.0616,12.59825 97.2760696,13.526875 97.2760696,16.583 C97.2873391,20.001375 94.4558609,21.6545 90.5058783,21.6545 L90.5058783,21.651625 Z M19.0117565,6.534875 C17.8348927,5.13696943 16.1004797,4.35881544 14.2954435,4.418875 C12.3373565,4.418875 11.3146435,5.137625 11.3146435,6.161125 C11.3146435,7.546875 12.8613913,8.027 15.8224696,8.875125 C19.0737391,9.8095 22.7673391,10.864625 22.7673391,15.2375 C22.7673391,19.610375 19.2061565,21.6315 14.7011478,21.6315 C10.900487,21.6315 7.79853913,20.524625 5.80382609,17.776125 L9.26921739,14.843625 C10.5905739,16.65775 12.5993739,17.396625 14.6448,17.396625 C17.0762087,17.396625 17.963687,16.534125 17.963687,15.59975 C17.963687,14.24275 16.5549913,13.912125 13.1431304,12.94325 C9.63266087,11.945625 6.58424348,10.565625 6.58424348,6.33075 C6.58424348,2.613375 9.56786087,0.192625 14.4475826,0.192625 C17.546713,0.192625 20.3894609,1.032125 22.4405217,3.642625 L19.0117565,6.534875 Z M65.6452174,5.64075 C66.5321071,5.60519982 67.3890603,5.97140631 67.9864696,6.64125 L66.1241739,10.6375 C65.6615799,10.2835067 65.0963723,10.097323 64.5182609,10.1085 C63.3349565,10.1085 62.3206957,11.14925 62.3206957,13.041 L62.3206957,21.24625 L57.6381913,21.24625 L57.6381913,5.934 L62.2418087,5.934 L62.2418087,8.081625 C63.064487,6.6125 64.1153739,5.64075 65.6452174,5.64075 Z M38.5982609,10.925 L38.5982609,21.24625 L33.9749217,21.24625 L33.9749217,12.5925 C33.9749217,10.93075 33.1015304,9.913 31.5576,9.913 C30.0136696,9.913 28.9627826,10.893375 28.9627826,12.65 L28.9627826,21.24625 L24.3309913,21.24625 L24.3309913,0.54625 L28.9627826,0.54625 L28.9627826,7.9925 C30.0465682,6.48846768 31.773666,5.60886645 33.6030261,5.62925 C36.4288696,5.62925 38.5982609,7.51525 38.5982609,10.925 Z M56.1252522,17.695625 L56.1252522,20.9415 C55.2583979,21.2801547 54.3374874,21.4517257 53.409287,21.4475 C52.1330087,21.4475 50.8510957,21.03925 50.2509913,19.529875 C49.248,20.679875 47.3744348,21.5625 45.2501217,21.5625 C42.1509913,21.5625 40.1590957,19.94675 40.1590957,16.8705 C40.1590957,13.860375 42.5482435,12.060625 46.2390261,12.060625 C47.4643216,12.0626735 48.6848029,12.2171463 49.8734609,12.520625 L49.8734609,12.020375 C49.8734609,10.295375 48.8986435,9.277625 46.8785739,9.277625 C45.5166984,9.31945473 44.212857,9.84982306 43.1962435,10.7755 L40.6605913,7.843 C42.1735304,6.44575 44.6302957,5.405 47.4645913,5.405 C51.8315478,5.405 54.4686261,7.54975 54.4686261,11.566125 L54.4686261,16.930875 C54.4686261,17.505875 54.7503652,17.793375 55.3617391,17.793375 C55.6219602,17.7923241 55.8811236,17.7595076 56.1337043,17.695625 L56.1252522,17.695625 Z M49.8762783,15.07075 C49.027898,14.8561756 48.1582394,14.741387 47.2842783,14.728625 C45.6896348,14.728625 44.9007652,15.527875 44.9007652,16.62325 C44.9007652,17.661125 45.5994783,18.4115 47.030713,18.4115 C48.5464696,18.4115 49.8762783,17.48575 49.8762783,16.08275 L49.8762783,15.07075 Z M101.628939,19.895 C101.657348,20.3126922 101.505882,20.722266 101.214132,21.0166678 C100.922381,21.3110696 100.519344,21.4610381 100.110365,21.427375 C99.1468174,21.427375 98.5917913,20.812125 98.5917913,19.895 C98.5917913,18.977875 99.1552696,18.35975 100.110365,18.35975 C100.519869,18.3259839 100.923412,18.4763264 101.215269,18.7713885 C101.507126,19.0664505 101.658211,19.4768266 101.628939,19.895 Z M101.381009,19.895 C101.426454,19.4036646 101.195235,18.9284639 100.784189,18.6684209 C100.373144,18.4083779 99.8532215,18.4083779 99.4421759,18.6684209 C99.0311303,18.9284639 98.7999108,19.4036646 98.8453565,19.895 C98.8453565,20.7575 99.3665739,21.22325 100.121635,21.22325 C100.876696,21.22325 101.381009,20.76325 101.381009,19.895 Z M100.417461,20.07325 L100.6992,20.616625 L100.394922,20.616625 L100.130087,20.116375 L99.8004522,20.116375 L99.8004522,20.616625 L99.518713,20.616625 L99.518713,19.10725 L100.144174,19.10725 C100.507617,19.10725 100.707652,19.297 100.707652,19.59025 C100.73005,19.7999116 100.610727,19.9985143 100.417461,20.07325 Z M100.431548,19.6075 C100.431548,19.443625 100.344209,19.345875 100.149809,19.345875 L99.7976348,19.345875 L99.7976348,19.87775 L100.110365,19.87775 C100.318852,19.87775 100.431548,19.811625 100.431548,19.6075 Z M126.320557,21.24625 L126.320557,15.03625 L124.9344,15.03625 L124.9344,21.24625 L126.320557,21.24625 Z M149.397809,16.488125 C148.05673,16.488125 146.918504,17.425375 146.918504,18.92325 C146.918504,20.421125 148.045461,21.367 149.397809,21.367 C150.750157,21.367 151.877113,20.421125 151.877113,18.92325 C151.877113,17.425375 150.730435,16.488125 149.397809,16.488125 Z M149.397809,20.150875 C149.085798,20.1536903 148.787106,20.0220355 148.575222,19.7883029 C148.363338,19.5545703 148.257933,19.2404581 148.284939,18.92325 C148.214733,18.4744041 148.410183,18.0254733 148.783646,17.7777675 C149.15711,17.5300617 149.638508,17.5300617 150.011971,17.7777675 C150.385434,18.0254733 150.580885,18.4744041 150.510678,18.92325 C150.537685,19.2404581 150.432279,19.5545703 150.220395,19.7883029 C150.008512,20.0220355 149.709819,20.1536903 149.397809,20.150875 Z M123.401739,17.986 C123.903043,17.7595341 124.222696,17.2487318 124.213148,16.689375 C124.213148,15.78375 123.570783,15.03625 122.13673,15.03625 L119.378504,15.03625 L119.378504,21.24625 L122.255061,21.24625 C123.697565,21.24625 124.390643,20.513125 124.390643,19.458 C124.418478,18.7975179 124.015485,18.1976552 123.401739,17.986 Z M120.823826,16.240875 L121.970504,16.240875 C122.432557,16.240875 122.739652,16.45075 122.739652,16.8705 C122.739652,17.29025 122.463548,17.5375 121.959235,17.5375 L120.812557,17.5375 L120.823826,16.240875 Z M122.07193,20.0445 L120.823826,20.0445 L120.823826,18.6875 L122.07193,18.6875 C122.570609,18.6875 122.869252,18.94625 122.869252,19.363125 C122.869252,19.78 122.584696,20.0445 122.060661,20.0445 L122.07193,20.0445 Z M136.440626,17.7445 C136.057461,16.93375 135.347478,16.482375 134.274052,16.482375 C133.003409,16.482375 131.870817,17.296 131.870817,18.906 C131.870817,20.516 132.868174,21.34975 134.25433,21.34975 C135.229148,21.34975 136.049009,20.953 136.432174,20.09625 L135.305217,19.52125 C135.120193,19.9157609 134.721936,20.1591482 134.293774,20.139375 C133.654226,20.139375 133.231617,19.67075 133.231617,18.9175 C133.231617,18.16425 133.707757,17.707125 134.282504,17.707125 C134.71593,17.6911541 135.113061,17.9529027 135.277043,18.362625 L136.440626,17.7445 Z M156.872348,17.7445 C156.489183,16.93375 155.7792,16.482375 154.705774,16.482375 C153.43513,16.482375 152.302539,17.296 152.302539,18.906 C152.302539,20.516 153.299896,21.34975 154.686052,21.34975 C155.66087,21.34975 156.48073,20.953 156.863896,20.09625 L155.736939,19.52125 C155.551914,19.9157609 155.153658,20.1591482 154.725496,20.139375 C154.085948,20.139375 153.663339,19.67075 153.663339,18.9175 C153.663339,18.16425 154.139478,17.707125 154.714226,17.707125 C155.147652,17.6911541 155.544782,17.9529027 155.708765,18.362625 L156.872348,17.7445 Z M145.577426,18.86575 C146.290937,18.5549997 146.746475,17.8315144 146.726922,17.040125 C146.726922,15.700375 145.752104,15.027625 144.360313,15.027625 L141.7824,15.027625 L141.7824,21.237625 L143.213635,21.237625 L143.213635,19.150375 L144.101113,19.150375 L145.253426,21.237625 L146.91287,21.237625 L145.577426,18.86575 Z M144.278609,17.91125 L143.213635,17.91125 L143.213635,16.269625 L144.278609,16.269625 C144.951965,16.269625 145.259061,16.557125 145.259061,17.09475 C145.261878,17.5375 144.943513,17.925625 144.281426,17.925625 L144.278609,17.91125 Z M131.422852,20.21125 C131.348399,20.2278539 131.270687,20.2063927 131.214601,20.1537386 C131.158515,20.1010845 131.131092,20.0238439 131.141113,19.94675 L131.141113,18.33675 C131.141113,17.135 130.349426,16.491 129.039339,16.491 C128.297199,16.4904752 127.579107,16.7595331 127.013635,17.25 L127.779965,18.1125 C128.084893,17.8350024 128.475985,17.6761811 128.884383,17.664 C129.490122,17.664 129.78313,17.971625 129.78313,18.48625 L129.78313,18.63575 C129.42656,18.5445566 129.060398,18.4982125 128.6928,18.49775 C127.585565,18.49775 126.869948,19.03825 126.869948,19.93525 C126.869948,20.83225 127.467235,21.344 128.396974,21.344 C128.957622,21.3575586 129.49926,21.1362657 129.895826,20.731625 C130.053731,21.1157065 130.439257,21.3491838 130.845287,21.306625 C131.123512,21.3067168 131.399426,21.2550821 131.659513,21.15425 L131.659513,20.179625 C131.583998,20.206291 131.505378,20.2227231 131.42567,20.2285 L131.422852,20.21125 Z M129.780313,19.69375 C129.780313,20.1135 129.383061,20.392375 128.935096,20.392375 C128.48713,20.392375 128.298365,20.168125 128.298365,19.85475 C128.298365,19.541375 128.535026,19.27975 129.011165,19.27975 C129.273219,19.28378 129.534021,19.317529 129.788765,19.380375 L129.780313,19.69375 Z M161.825322,21.229 L160.191235,18.339625 L161.718261,16.654875 L160.177148,16.654875 L158.5656,18.483375 L158.5656,15.033375 L157.210435,15.033375 L157.210435,21.243375 L158.585322,21.243375 L158.585322,20.125 L159.244591,19.40625 L160.275757,21.2405 L161.825322,21.229 Z M141.410504,21.229 L139.776417,18.339625 L141.309078,16.637625 L139.742609,16.637625 L138.150783,18.466125 L138.150783,15.016125 L136.778713,15.016125 L136.778713,21.226125 L138.150783,21.226125 L138.150783,20.125 L138.807235,19.40625 L139.8384,21.2405 L141.410504,21.229 Z M115.772243,16.629 L114.949565,19.662125 L113.957843,16.652 L112.470261,16.652 L114.301565,21.29225 C114.193337,21.5521172 113.927561,21.7054103 113.653565,21.666 C113.461035,21.6636143 113.273246,21.6047284 113.112626,21.496375 L112.61113,22.468125 C112.928819,22.6949434 113.308123,22.8145801 113.695826,22.81025 C114.724174,22.81025 115.33273,22.23525 115.698991,21.14275 L117.203478,16.652 L115.772243,16.629 Z M110.441739,16.4335 C109.952064,16.4264405 109.47937,16.6164919 109.126017,16.9625 L109.126017,15.03625 L107.717322,15.03625 L107.717322,21.24625 L109.080939,21.24625 L109.080939,20.829375 C109.426366,21.1958234 109.910253,21.3918681 110.40793,21.367 C111.59687,21.367 112.50407,20.409625 112.50407,18.8945 C112.50407,17.379375 111.633496,16.4335 110.441739,16.4335 Z M110.075478,20.125 C109.708412,20.137782 109.356792,19.9738156 109.126017,19.68225 L109.126017,18.161375 C109.339117,17.8585395 109.679231,17.675424 110.044487,17.666875 C110.653043,17.666875 111.109461,18.092375 111.109461,18.897375 C111.109461,19.702375 110.703757,20.125 110.075478,20.125 Z"></path>
        </g>
    </g>
</svg>