<svg width="600" height="89" viewBox="0 0 600 89" fill="none" xmlns="http://www.w3.org/2000/svg">
<g clip-path="url(#clip0_948_4737)">
<path d="M594.317 46.9583C594.385 47.1045 594.418 47.271 594.418 47.4577C594.418 47.7298 594.349 47.9652 594.212 48.1682C594.074 48.3712 593.88 48.5255 593.622 48.6351C593.363 48.7448 593.052 48.8016 592.693 48.8016C592.333 48.8016 592.022 48.7448 591.76 48.6351C591.493 48.5255 591.287 48.3591 591.142 48.1439C590.992 47.9287 590.915 47.6607 590.907 47.34H591.8C591.812 47.4902 591.857 47.6161 591.933 47.7176C592.01 47.8191 592.115 47.8962 592.244 47.9449C592.374 47.9937 592.523 48.0221 592.685 48.0221C592.846 48.0221 592.992 47.9977 593.113 47.9531C593.234 47.9043 593.327 47.8394 593.396 47.7541C593.464 47.6689 593.497 47.5673 593.497 47.4537C593.497 47.3522 593.464 47.2669 593.404 47.1979C593.343 47.1289 593.254 47.068 593.141 47.0193C593.028 46.9705 592.887 46.9259 592.725 46.8853L592.232 46.7635C591.853 46.6701 591.558 46.5239 591.344 46.329C591.13 46.1301 591.024 45.8703 591.024 45.5455C591.024 45.2734 591.097 45.038 591.243 44.835C591.388 44.632 591.586 44.4736 591.84 44.3599C592.095 44.2462 592.382 44.1894 592.705 44.1894C593.028 44.1894 593.323 44.2462 593.569 44.3599C593.816 44.4736 594.006 44.632 594.147 44.835C594.284 45.038 594.357 45.2694 594.361 45.5333H593.476C593.46 45.3506 593.383 45.2125 593.246 45.1151C593.109 45.0177 592.927 44.9689 592.697 44.9689C592.543 44.9689 592.41 44.9892 592.301 45.0339C592.192 45.0786 592.107 45.1395 592.05 45.2166C591.994 45.2937 591.966 45.3831 591.966 45.4846C591.966 45.5942 591.998 45.6876 592.063 45.7606C592.127 45.8337 592.216 45.8946 592.325 45.9393C592.434 45.9839 592.551 46.0205 592.677 46.053L593.081 46.1545C593.27 46.1951 593.444 46.2519 593.606 46.325C593.767 46.3981 593.909 46.4874 594.03 46.5929C594.151 46.6985 594.248 46.8244 594.313 46.9665L594.317 46.9583ZM598.586 44.2462L597.871 46.3087C597.843 46.4062 597.807 46.532 597.766 46.6863C597.726 46.8406 597.689 47.0071 597.649 47.1857C597.609 47.3562 597.572 47.5227 597.54 47.6851C597.508 47.5227 597.467 47.3522 597.431 47.1817C597.391 47.003 597.35 46.8406 597.314 46.6863C597.277 46.532 597.241 46.4102 597.209 46.3128L596.482 44.2503H595.076V48.7448H595.985V46.6295C595.985 46.528 595.985 46.4021 595.981 46.256C595.981 46.1098 595.973 45.9474 595.969 45.7769C595.965 45.6064 595.961 45.4318 595.957 45.2613C595.957 45.1963 595.957 45.1354 595.957 45.0745C595.977 45.1516 595.997 45.2288 596.017 45.31C596.066 45.4886 596.114 45.6591 596.159 45.8256C596.207 45.9921 596.251 46.1463 596.292 46.2844C596.332 46.4224 596.369 46.5361 596.401 46.6295L597.152 48.7448H597.924L598.663 46.6295C598.691 46.5361 598.728 46.4224 598.772 46.2803C598.812 46.1423 598.857 45.988 598.905 45.8215C598.954 45.6551 598.998 45.4805 599.047 45.3059C599.071 45.2166 599.091 45.1313 599.111 45.042C599.111 45.1191 599.111 45.1922 599.107 45.2775C599.107 45.448 599.099 45.6185 599.095 45.7891C599.091 45.9596 599.087 46.1179 599.083 46.2641C599.083 46.4102 599.079 46.532 599.079 46.6335V48.7488H600V44.2544H598.59L598.586 44.2462ZM0.0121177 75.7196C15.4345 75.7196 28.195 71.144 41.836 66.3531C55.5983 61.5623 70.1239 56.3127 87.7721 56.3127V68.5862C72.3496 68.5862 59.5892 73.1618 45.827 77.9527C32.1859 82.7557 17.6441 87.9931 0 87.9931V75.7318L0.0121177 75.7196ZM0.0121177 37.7989H87.7721V50.178H0.0121177V37.7989ZM41.836 10.0364C55.5983 5.23338 70.1361 0 87.7721 0V12.2572C72.3496 12.2572 59.5892 16.8329 45.827 21.6237C32.1859 26.4268 17.6562 31.6601 0.0121177 31.6601V19.4029C15.4345 19.4029 28.195 14.8272 41.836 10.0364ZM282.677 48.7732H318.159V39.3458H292.533V29.5733H313.942V20.1459H292.533V11.4655H317.274V2.03814H282.677V48.7691V48.7732ZM205.803 28.6151L211.79 12.8378H213.963L219.949 28.6151H205.807H205.803ZM186.709 48.7732H197.785L202.131 37.6406H223.613L228.105 48.7732H239.048L219.323 2.0422H206.409L186.697 48.761L186.709 48.7732ZM249.716 48.7732H259.846V11.4655H275.543V2.03814H234.018V11.4655H249.716V48.7732ZM165.898 48.7732H176.029V11.4655H191.726V2.03814H150.201V11.4655H165.898V48.7732ZM108.603 45.4237V34.425C114.981 38.8667 122.806 40.9089 127.835 40.9089C133.676 40.9089 137.966 39.6828 137.966 35.7933C137.966 33.475 136.128 32.2407 132.601 31.2785L122.672 28.6841C115.47 26.7759 108.745 24.2425 108.745 15.4281C108.745 4.70558 119.413 0.945989 129.604 0.945989C134.5 0.945989 139.529 1.68897 144.55 3.61343V13.3128C138.563 10.9946 132.856 10.3125 127.968 10.3125C122.054 10.3125 118.795 11.6076 118.795 14.4781C118.795 16.4594 120.362 17.6246 124.506 18.7168L134.912 21.4532C143.132 23.6375 147.967 27.4702 147.967 34.9731C147.967 44.6726 138.996 50.3444 128.126 50.3444C120.107 50.2713 114.125 48.8422 108.615 45.4196H108.603V45.4237ZM437.022 22.7281V11.4534H449.258C453.402 11.4534 455.983 13.6377 455.983 17.1212C455.983 20.6047 453.475 22.7159 449.258 22.7159H437.022V22.7281ZM427.025 48.7488H437.014V32.0824H444.693L457.131 48.7488H469.16L455.971 30.8603C462.697 28.9399 466.235 24.1694 466.235 17.1333C466.235 7.43392 459.784 2.0422 448.018 2.0422H427.017V48.761L427.029 48.7488H427.025ZM517.221 48.7488H552.703V39.3214H527.077V29.5489H548.486V20.1215H527.077V11.4412H551.818V2.03814H517.233V48.7569L517.221 48.7448V48.7488ZM474.274 48.7488H509.756V39.3214H484.13V29.5489H505.539V20.1215H484.13V11.4412H508.871V2.03814H474.274V48.7569V48.7448V48.7488ZM574.168 48.7488H584.299V11.4534H599.996V2.02596H558.471V11.4534H574.168V48.7488ZM394.076 48.7488H404.206V11.4534H419.903V2.02596H378.378V11.4534H394.076V48.7488ZM356.291 50.3241C367.165 50.3241 376.133 44.6563 376.133 34.9528C376.133 27.4377 371.305 23.6172 363.085 21.4329L352.68 18.7086C348.535 17.6165 346.968 16.4513 346.968 14.47C346.968 11.5995 350.228 10.3044 356.142 10.3044C361.041 10.3044 366.749 10.9905 372.723 13.3047V3.61343C367.694 1.69303 362.665 0.945989 357.777 0.945989C347.586 0.945989 336.918 4.70558 336.918 15.4281C336.918 24.2425 343.644 26.7637 350.85 28.6841L360.775 31.2785C364.313 32.2285 366.139 33.4628 366.139 35.7933C366.139 39.6828 361.861 40.9089 356.008 40.9089C350.979 40.9089 343.167 38.8545 336.773 34.425V45.4237C342.278 48.8463 348.253 50.2754 356.283 50.3485V50.3241H356.291ZM582.235 88.0499H587.874V70.1696H595.674V65.0661H574.447V70.1696H582.247V88.0499H582.235ZM549.871 88.0499H555.401V75.4435C555.401 74.0997 555.231 72.5122 555.175 71.0019H555.498C556.189 72.6462 556.811 73.9332 557.53 75.2162L564.671 88.054H571.292V65.0702H565.916V76.2028C565.916 77.5466 566.045 79.0976 566.105 80.6079H565.782C565.16 79.1301 564.538 77.6766 563.811 76.3936L557.489 65.0702H549.855V88.054H549.867L549.871 88.0499ZM528.45 88.0499H546.43V82.983H534.041V78.7687H544.325V73.7627H534.041V70.1371H545.929V65.0702H528.438V88.054H528.45V88.0499ZM496.672 88.0499H502.178V75.5369C502.178 74.12 501.952 71.3957 501.879 69.8082H502.202C502.598 71.4891 503.349 74.323 503.778 75.6668L507.781 88.0459H513.028L517.055 75.6668C517.507 74.2864 518.105 72.0169 518.63 69.8082H518.953C518.893 71.3551 518.63 74.12 518.63 75.5369V88.0499H524.16V65.0336H515.415L511.844 76.7509L510.564 81.0992H510.241L508.96 76.7509L505.426 65.0336H496.68V88.0499H496.668H496.672ZM475.251 88.0499H493.231V82.983H480.842V78.7687H491.126V73.7627H480.842V70.1371H492.73V65.0702H475.239V88.054H475.251V88.0499ZM461.263 89C465.553 89 469.196 87.713 471.155 86.1296V74.4448H458.706V79.2843H465.682V83.2713C464.632 83.7626 462.959 83.8965 461.788 83.8965C457.236 83.8965 454.452 81.5904 454.355 76.8483C454.259 72.1062 457.139 69.6418 462.087 69.6418C464.474 69.6418 467.257 70.0031 470.21 71.1927V65.8253C467.916 64.8996 464.571 64.4449 462.087 64.4449C453.758 64.4449 448.325 69.2236 448.325 76.7874C448.325 84.3512 453.103 89 461.263 89ZM431.876 78.1313L433.383 74.0509L434.627 70.7583L435.641 70.7217L436.824 73.8439L438.424 78.1313H431.876ZM421.85 88.0499H428.039L429.974 83.0439H440.294L442.193 88.0499H448.381L438.921 65.0661H431.359L421.863 88.0499H421.85ZM398.628 88.0499H404.158V75.4435C404.158 74.0997 403.988 72.5122 403.932 71.0019H404.267C404.962 72.6462 405.58 73.9332 406.299 75.2162L413.444 88.054H420.061V65.0702H414.685V76.2028C414.685 77.5466 414.814 79.0976 414.887 80.6079H414.563C413.941 79.1301 413.319 77.6766 412.604 76.3936L406.287 65.0702H398.652V88.054H398.628V88.0499ZM380.313 78.1313L381.82 74.0509L383.064 70.7583L384.078 70.7217L385.262 73.8439L386.861 78.1313H380.313ZM370.292 88.0499H376.48L378.415 83.0439H388.735L390.634 88.0499H396.822L387.362 65.0661H379.8L370.304 88.0499H370.292ZM341.01 88.0499H346.516V75.5369C346.516 74.12 346.289 71.3957 346.217 69.8082H346.54C346.936 71.4891 347.687 74.323 348.115 75.6668L352.118 88.0459H357.361L361.389 75.6668C361.841 74.2864 362.439 72.0169 362.964 69.8082H363.287C363.227 71.3551 362.964 74.12 362.964 75.5369V88.0499H368.494V65.0336H359.749L356.178 76.7509L354.897 81.0992H354.574L353.294 76.7509L349.759 65.0336H341.014V88.0499H341.002H341.01ZM317.549 88.0499H323.188V70.1696H330.988V65.0661H309.757V70.1696H317.557V88.0499H317.545H317.549ZM285.186 88.0499H290.715V75.4435C290.715 74.0997 290.546 72.5122 290.489 71.0019H290.812C291.503 72.6462 292.125 73.9332 292.844 75.2162L299.99 88.054H306.606V65.0702H301.23V76.2028C301.23 77.5466 301.363 79.0976 301.424 80.6079H301.101C300.479 79.1301 299.857 77.6766 299.13 76.3936L292.812 65.0702H285.177V88.054H285.19L285.186 88.0499ZM263.765 88.0499H281.756V82.983H269.367V78.7687H279.652V73.7627H269.367V70.1371H281.255V65.0702H263.765V88.054V88.0499ZM231.987 88.0499H237.492V75.5369C237.492 74.12 237.266 71.3957 237.193 69.8082H237.517C237.912 71.4891 238.664 74.323 239.092 75.6668L243.095 88.0459H248.338L252.365 75.6668C252.818 74.2864 253.416 72.0169 253.941 69.8082H254.276C254.203 71.3551 253.941 74.12 253.941 75.5369V88.0499H259.483V65.0336H250.738L247.167 76.7509L245.886 81.0992H245.563L244.283 76.7509L240.748 65.0336H232.003V88.0499H231.979H231.987ZM215.417 88.0499H221.056V70.1696H228.856V65.0661H207.629V70.1696H215.429V88.0499H215.417ZM197.236 88.7117C202.503 88.7117 206.866 85.9753 206.866 81.1114C206.866 77.3883 204.309 75.3826 200.249 74.2905L195.172 72.9466C193.701 72.5487 193.047 72.094 193.047 71.1683C193.047 70.1127 194.121 69.39 196.88 69.39C199.474 69.39 202.22 69.8448 205.064 70.8679V65.7644C202.342 64.7778 199.821 64.3475 197.203 64.3475C192.352 64.3475 187.481 66.1826 187.481 71.5621C187.481 76.0404 190.825 77.5913 194.327 78.4439L199.106 79.6335C200.479 79.9583 201.364 80.5957 201.364 81.5783C201.364 83.1617 199.558 83.6205 196.969 83.6205C194.247 83.6205 191.007 82.7313 187.998 80.75V86.5721C190.615 88.0865 193.661 88.7077 197.232 88.7077M167.227 88.0499H185.206V82.983H172.83V78.7687H183.114V73.7627H172.83V70.1371H184.718V65.0702H167.227V88.054V88.0499ZM149.627 88.0499H156.64L165.478 65.0661H159.217L154.834 77.4817L153.327 82.0208H152.932C152.503 80.7338 151.918 78.789 151.461 77.506L146.945 65.0661H140.628L149.635 88.0499H149.623H149.627ZM117.47 88.0499H123V75.4435C123 74.0997 122.83 72.5122 122.773 71.0019H123.097C123.787 72.6462 124.409 73.9332 125.128 75.2162L132.274 88.054H138.891V65.0702H133.514V76.2028C133.514 77.5466 133.643 79.0976 133.716 80.6079H133.393C132.771 79.1301 132.153 77.6766 131.422 76.3936L125.104 65.0702H117.47V88.054V88.0499ZM107.803 88.0499H113.406V65.0661H107.803V88.0499Z" fill="#001AFF"/>
</g>
<defs>
<clipPath id="clip0_948_4737">
<rect width="600" height="89" fill="white"/>
</clipPath>
</defs>
</svg>
